<svg xmlns="http://www.w3.org/2000/svg" xmlns:xlink="http://www.w3.org/1999/xlink" x="0" y="0" version="1.1" viewBox="0 0 200 289.3" xml:space="preserve" style="enable-background:new 0 0 200 289.3"><style type="text/css">.st0{fill:#201e43}</style><g id="Icon_Reflectiz_Navy"><g><path d="M75.3,0l36.9,0v45H72.8c-13.2,0-23.9,11.2-23.9,25v50.6H92v48.3H48.9v120.5H0l0-120.5l0-48.3l0-30.1l0-30.7 C0,26.8,25.6,0,57.2,0L75.3,0z" class="st0"/><path d="M124.7,289.3l-36.9,0l0-45l39.4,0c13.2,0,23.9-11.2,23.9-25l0-50.6l-43.1,0l0-48.3l43.1,0l0-120.5L200,0 l0,120.5l0,48.3l0,30.1l0,30.7c0,33-25.6,59.8-57.2,59.8L124.7,289.3z" class="st0"/></g></g></svg>