<svg xmlns="http://www.w3.org/2000/svg" xmlns:xlink="http://www.w3.org/1999/xlink" x="0" y="0" version="1.1" viewBox="0 0 464 464" xml:space="preserve" style="enable-background:new 0 0 464 464"><style type="text/css">.st0{display:none}.st1,.st2{display:inline;fill:#86cdb2}.st2{fill:none;stroke:#891286;stroke-width:1.2128;stroke-miterlimit:10}.st3{fill:#12438c}</style><g id="Reperes" class="st0"><rect width="232" height="464" x="232" class="st1"/><rect width="6.1" height="35.2" x="156.7" y=".5" class="st2"/><rect width="6.1" height="35.2" x="156.7" y="429.4" class="st2"/><rect width="6.1" height="35.2" x="15.6" y="143.2" class="st2" transform="matrix(7.439672e-06 1 -1 7.439672e-06 179.5004 142.1107)"/><rect width="6.1" height="35.2" x="15" y="288.4" class="st2" transform="matrix(7.439672e-06 1 -1 7.439672e-06 324.0827 287.9715)"/></g><g id="Layer_1"><g><path d="M84.7,354.4l-48.9-48.9l73.5-73.6l-73-73l48.9-48.9l121.9,121.9L84.7,354.4z" class="st3"/><path d="M159.8,429.5l-48.9-48.9l122.6-122.5L355.4,380L306.5,429l-73-73.1L159.8,429.5z" class="st3"/><path d="M233.1,205.9L111,84L160,35l73.1,73.1l73.5-73.6l48.9,48.9L233.1,205.9z" class="st3"/></g></g></svg>