<svg xmlns="http://www.w3.org/2000/svg" xmlns:xlink="http://www.w3.org/1999/xlink" id="Layer_1" x="0" y="0" version="1.1" viewBox="0 0 149.7 57.5" xml:space="preserve" style="enable-background:new 0 0 149.7 57.5"><style type="text/css">.st0{filter:url(#Adobe_OpacityMaskFilter)}.st1,.st2,.st4{fill-rule:evenodd;clip-rule:evenodd;fill:#fff}.st2,.st4{mask:url(#mask-2_00000132768178699331094280000012237528237319894679_);fill:#0cd8d5}.st4{mask:url(#mask-2_00000067236250211480564550000011990063610268138403_)}.st5{fill:#06121e}</style><switch><g><g><g><defs><filter id="Adobe_OpacityMaskFilter" width="18.7" height="57.5" x="0" y="0" filterUnits="userSpaceOnUse"><feColorMatrix type="matrix" values="1 0 0 0 0 0 1 0 0 0 0 0 1 0 0 0 0 0 1 0"/></filter></defs><mask id="mask-2_00000132768178699331094280000012237528237319894679_" width="18.7" height="57.5" x="0" y="0" maskUnits="userSpaceOnUse"><g class="st0"><polygon id="path-1_00000152223008592218969150000008558496923977938862_" points="0 57.5 138.4 57.5 138.4 0 0 0" class="st1"/></g></mask><path id="Fill-21_00000106126689834370585130000003333689536064644029_" d="M13.8,4.7c0.7-0.5,2.4-1.4,4.8-2.4V0 C8.9,0,2.4,3.7,0.7,4.7C0.5,4.9,0.3,5.2,0.3,5.5C0.1,8.8-1.2,29.1,3.7,40.5c5.3,12.5,15,16.9,15,16.9V44.4 c-0.7-1.2-1.3-2.5-1.9-3.8c-4.8-11.4-3.6-31.7-3.4-35.1C13.4,5.2,13.6,4.9,13.8,4.7" class="st2"/><defs><filter id="Adobe_OpacityMaskFilter_00000152246793627303186010000007136779416758517409_" width="18.7" height="57.5" x="32.3" y="0" filterUnits="userSpaceOnUse"><feColorMatrix type="matrix" values="1 0 0 0 0 0 1 0 0 0 0 0 1 0 0 0 0 0 1 0"/></filter></defs><mask id="mask-2_00000067236250211480564550000011990063610268138403_" width="18.7" height="57.5" x="32.3" y="0" maskUnits="userSpaceOnUse"><g style="filter:url(#Adobe_OpacityMaskFilter_00000152246793627303186010000007136779416758517409_)"><polygon id="path-1_00000013915400567405350830000015127747963559521929_" points="0 57.5 138.4 57.5 138.4 0 0 0" class="st1"/></g></mask><path id="Fill-22_00000021824601886551371860000016386860992811200645_" d="M50.3,4.7C48.6,3.7,42.1,0,32.3,0v2.4 c2.5,0.9,4.1,1.9,4.8,2.4c0.3,0.2,0.4,0.4,0.4,0.7c0.2,3.3,1.5,23.6-3.4,35.1c-0.6,1.4-1.2,2.7-1.9,3.8v13.1 c0,0,9.7-4.4,15-16.9c4.8-11.4,3.6-31.7,3.4-35.1C50.7,5.2,50.5,4.9,50.3,4.7" class="st4"/></g><path d="M142.3,28.2V6.9c0,0,0-0.1,0.1-0.1h7.2c0,0,0,0,0,0.1v2.9c0,0,0,0,0,0h-3.7c0,0-0.1,0-0.1,0.1v5.9 c0,0,0,0,0.1,0h3.6c0,0,0,0,0,0.1v2.9c0,0,0,0,0,0h-3.6c0,0-0.1,0-0.1,0.1v6.3c0,0,0,0,0.1,0h3.8c0,0,0,0,0,0.1v2.9c0,0,0,0,0,0 L142.3,28.2C142.3,28.3,142.3,28.3,142.3,28.2z" class="st5"/><path d="M123.1,28.2V6.9c0,0,0-0.1,0.1-0.1h3.4c0,0,0.1,0,0.1,0.1v21.3c0,0,0,0-0.1,0L123.1,28.2 C123.2,28.3,123.1,28.3,123.1,28.2z" class="st5"/><path d="M137.7,6.9l-3.1,16.8c0,0.1-0.1,0.1-0.1,0l-3.1-16.8c0,0,0,0,0,0h-3c0,0-0.1,0,0,0.1l4,21.3c0,0,0,0,0,0h4.6 c0,0,0,0,0,0l4-21.3c0,0,0-0.1,0-0.1L137.7,6.9C137.7,6.9,137.7,6.9,137.7,6.9z" class="st5"/><path d="M115.4,28.2V9.9c0,0,0-0.1,0-0.1h-2.6c0,0-0.1,0-0.1,0V6.9c0,0,0-0.1,0.1-0.1h8.8c0,0,0,0,0,0.1v2.9 c0,0,0,0,0,0H119c0,0-0.1,0-0.1,0.1v18.3c0,0,0,0,0,0L115.4,28.2C115.5,28.3,115.4,28.3,115.4,28.2z" class="st5"/><path d="M107.6,6.9h-6c0,0-0.1,0-0.1,0.1v21.3c0,0,0,0,0.1,0h3.4v-7.8h3.2c1.7,0,3-1.4,3-3v-6.9 C111.2,8.5,109.6,6.9,107.6,6.9z M107.7,16.4c0,0.7-0.6,1.3-1.3,1.3H105c0,0-0.1,0-0.1,0V9.8c0,0,0-0.1,0.1-0.1h1.4 c0.7,0,1.3,0.6,1.3,1.3V16.4z" class="st5"/><path d="M80.6,6.9h-5.8c0,0,0,0,0,0.1v21.3c0,0,0,0,0,0h5.8c2.4,0,4.3-1.9,4.3-4.3V11.2C84.9,8.8,83,6.9,80.6,6.9z M81.5,23.7c0,1.1-0.6,1.7-1.7,1.7h-1.4V9.7h1.4c1.1,0,1.7,0.6,1.7,1.7V23.7z" class="st5"/><path d="M119.5,32.5h-5.8c0,0-0.1,0-0.1,0v21.3c0,0,0,0,0.1,0h5.8c2.4,0,4.3-1.9,4.3-4.3V36.8 C123.8,34.4,121.9,32.5,119.5,32.5z M120.4,49.3c0,1-0.8,1.7-1.7,1.7h-1.3c0,0-0.1,0-0.1,0V35.4c0,0,0,0,0.1,0h1.3 c1,0,1.7,0.8,1.7,1.7V49.3z" class="st5"/><path d="M63.4,54.1c-2,0-3.7-1.6-3.7-3.7v-4.2c0,0,0,0,0.1,0h3.3c0,0,0,0,0,0V50c0,0.7,0.6,1.3,1.3,1.3h0.4 c0.7,0,1.3-0.6,1.3-1.3v-2.7c0-0.8-0.3-1.4-1-1.8l-3.8-2.8c-0.6-0.4-1-0.9-1.3-1.3c-0.2-0.5-0.3-1.1-0.3-1.8v-4.2 c0-1.7,1.3-3,3-3h3.8c1.7,0,3,1.3,3,3v4.2c0,0,0,0.1,0,0.1h-3.3c0,0-0.1,0-0.1-0.1v-3.1c0-0.7-0.6-1.3-1.3-1.3h-0.3 c-0.7,0-1.3,0.6-1.3,1.3v2.1c0,0.8,0.3,1.4,1,1.8l3.8,2.8c0.6,0.4,1,0.9,1.3,1.3c0.2,0.4,0.3,1,0.3,1.8v4.1c0,2-1.6,3.7-3.7,3.7 H63.4z" class="st5"/><path d="M104.2,53.8V32.5c0,0,0,0,0.1,0h3.4c0,0,0,0,0,0v18.3c0,0,0,0.1,0.1,0.1h3.1c0,0,0,0,0,0v2.9 c0,0,0,0.1,0,0.1L104.2,53.8C104.2,53.9,104.2,53.9,104.2,53.8z" class="st5"/><path d="M92.8,53.8V32.5c0,0,0,0,0.1,0h8.2c0,0,0,0,0,0v2.9c0,0,0,0.1,0,0.1h-4.7c0,0-0.1,0-0.1,0v5.9 c0,0,0,0.1,0.1,0.1h4.6c0,0,0,0,0,0v2.9c0,0,0,0.1,0,0.1h-4.6c0,0-0.1,0-0.1,0v6.3c0,0,0,0.1,0.1,0.1h4.8c0,0,0,0,0,0v2.9 c0,0,0,0.1,0,0.1L92.8,53.8C92.8,53.9,92.8,53.9,92.8,53.8z" class="st5"/><path d="M86,53.8V32.5c0,0,0,0,0.1,0h3.4c0,0,0,0,0,0v21.3c0,0,0,0.1,0,0.1L86,53.8C86,53.9,86,53.9,86,53.8z" class="st5"/><path d="M79.3,53.8v-9.3c0,0,0,0,0,0h-3.1c0,0-0.1,0-0.1,0v9.3c0,0,0,0.1,0,0.1h-3.4c0,0-0.1,0-0.1-0.1V32.5 c0,0,0,0,0.1,0H76c0,0,0,0,0,0v8.9c0,0,0,0.1,0.1,0.1h3.1c0,0,0,0,0-0.1v-8.9c0,0,0,0,0.1,0h3.4c0,0,0,0,0,0v21.3 c0,0,0,0.1,0,0.1L79.3,53.8C79.3,53.9,79.3,53.9,79.3,53.8z" class="st5"/><path d="M96.7,28.3h3.3c0,0,0.1,0,0-0.1L95.7,6.9c0,0,0,0,0,0h-4.9c0,0,0,0,0,0l-4.3,21.3c0,0,0,0.1,0,0.1h3.3 c0,0,0,0,0,0l1.3-6.6c0,0,0,0,0,0h4.1c0,0,0,0,0,0L96.7,28.3C96.6,28.3,96.7,28.3,96.7,28.3z M91.7,18.5l1.4-7.1 c0-0.1,0.1-0.1,0.1,0l1.4,7.1c0,0,0,0.1,0,0.1L91.7,18.5C91.8,18.6,91.7,18.6,91.7,18.5z" class="st5"/><path d="M70,28.3h3.3c0,0,0.1,0,0-0.1L69,6.9c0,0,0,0,0,0h-4.9c0,0,0,0,0,0l-4.3,21.3c0,0,0,0.1,0,0.1h3.3 c0,0,0,0,0,0l1.3-6.6c0,0,0,0,0,0h4.1c0,0,0,0,0,0L70,28.3C70,28.3,70,28.3,70,28.3z M65.1,18.5l1.4-7.1c0-0.1,0.1-0.1,0.1,0 l1.4,7.1c0,0,0,0.1,0,0.1L65.1,18.5C65.1,18.6,65.1,18.6,65.1,18.5z" class="st5"/></g></g></switch></svg>