<svg xmlns="http://www.w3.org/2000/svg" width="91" height="38" fill="none" viewBox="0 0 91 38"><rect width="10.523" height="2.308" x="43.379" y="11.699" fill="#1D2939"/><rect width="10.523" height="2.308" x="79.84" y="11.699" fill="#1D2939"/><rect width="2.492" height="19.2" x="62.855" y="6.345" fill="#1D2939"/><rect width="2.492" height="13.846" x="57.317" y="11.699" fill="#1D2939"/><rect width="2.492" height="2.492" fill="#1D2939" transform="matrix(1 0 0 -1 57.3174 8.83704)"/><rect width="11.077" height="2.308" x="43.102" y="23.237" fill="#1D2939"/><path fill="#1D2939" d="M43.1016 23.2371L50.9487 14.0063L53.9016 14.0063L46.0545 23.2371L43.1016 23.2371Z"/><path fill="#1D2939" d="M79.5635 23.2371L87.4106 14.0063L90.3635 14.0063L82.5164 23.2371L79.5635 23.2371Z"/><rect width="2.492" height="19.2" x="68.394" y="6.345" fill="#1D2939"/><rect width="11.077" height="2.308" x="79.564" y="23.237" fill="#1D2939"/><rect width="2.492" height="13.846" x="73.933" y="11.699" fill="#1D2939"/><rect width="2.492" height="2.492" fill="#1D2939" transform="matrix(1 0 0 -1 73.9326 8.83704)"/><path fill="url(#paint0_linear_17793_123182)" d="M17.9473 25.2625V37.0832H20.255V22.9279L26.3914 33.5565C27.0858 33.2169 27.753 32.8303 28.3889 32.4008L21.6716 20.766L29.0691 23.4585C29.4029 22.7719 29.6678 22.0457 29.8549 21.2887L25.6975 19.7755H37.5627V17.4678H23.4073L34.036 11.3314C33.6964 10.637 33.3098 9.9698 32.8803 9.33392L21.3144 16.0115L23.9842 8.6764C23.299 8.33937 22.574 8.07106 21.8181 7.88045L20.255 12.1749V0.160156H17.9473V14.3155L11.8109 3.68687C11.1165 4.02647 10.4493 4.41307 9.81344 4.84252L16.5029 16.429L9.14914 13.7524C8.81308 14.438 8.54577 15.1634 8.3562 15.9196L12.6099 17.4678H0.639648V19.7755H14.7949L4.16638 25.9119C4.50598 26.6063 4.89258 27.2735 5.32203 27.9094L16.9774 21.1802L14.2781 28.5963C14.9652 28.9291 15.6918 29.1931 16.449 29.3791L17.9473 25.2625Z"/><defs><linearGradient id="paint0_linear_17793_123182" x1="8.486" x2="27.593" y1="4.083" y2="35.053" gradientUnits="userSpaceOnUse"><stop stop-color="#9D41FF"/><stop offset=".469" stop-color="#2858FF"/><stop offset=".771" stop-color="#29B8FF"/><stop offset="1" stop-color="#00F0FF"/></linearGradient></defs></svg>