<svg xmlns="http://www.w3.org/2000/svg" xmlns:xlink="http://www.w3.org/1999/xlink" width="800" height="600" preserveAspectRatio="xMidYMid meet" version="1.0" viewBox="0 0 600 450" zoomAndPan="magnify"><defs><clipPath id="057413b947"><path d="M 192 178.789062 L 242 178.789062 L 242 228 L 192 228 Z M 192 178.789062" clip-rule="nonzero"/></clipPath><clipPath id="09ea96d07b"><path d="M 234.5 185.101562 L 211.054688 178.816406 C 210.808594 178.75 210.546875 178.816406 210.367188 179 L 194.71875 194.644531 L 193.199219 196.164062 C 193.019531 196.34375 192.949219 196.601562 193.015625 196.847656 L 199.300781 220.292969 C 199.363281 220.539062 199.558594 220.726562 199.800781 220.792969 L 223.246094 227.078125 C 223.492188 227.144531 223.75 227.078125 223.929688 226.894531 L 225.449219 225.375 L 241.097656 209.730469 C 241.273438 209.550781 241.347656 209.292969 241.28125 209.046875 L 234.996094 185.601562 C 234.929688 185.355469 234.734375 185.167969 234.496094 185.101562 Z M 220.175781 216.046875 L 216.875 203.726562 C 216.808594 203.484375 216.617188 203.292969 216.375 203.226562 L 204.054688 199.929688 C 203.527344 199.789062 203.351562 199.128906 203.738281 198.742188 L 210.949219 191.53125 C 211.128906 191.351562 211.386719 191.28125 211.632812 191.347656 L 224.742188 194.859375 C 224.988281 194.921875 225.175781 195.117188 225.242188 195.359375 L 228.753906 208.464844 C 228.816406 208.710938 228.753906 208.96875 228.566406 209.148438 L 221.359375 216.359375 C 220.972656 216.746094 220.3125 216.566406 220.167969 216.042969 Z M 220.175781 216.046875" clip-rule="nonzero"/></clipPath><linearGradient id="6d47890624" x1="2.135" x2="35.82" y1="36.398" y2=".58" gradientTransform="matrix(1.390869, 0, 0, 1.390625, 192.383964, 178.790584)" gradientUnits="userSpaceOnUse"><stop offset="0" stop-color="#1578E4" stop-opacity="1"/><stop offset=".031" stop-color="#1578E4" stop-opacity="1"/><stop offset=".047" stop-color="#1578E4" stop-opacity="1"/><stop offset=".051" stop-color="#1678E4" stop-opacity="1"/><stop offset=".055" stop-color="#1679E4" stop-opacity="1"/><stop offset=".059" stop-color="#1779E4" stop-opacity="1"/><stop offset=".063" stop-color="#1879E4" stop-opacity="1"/><stop offset=".066" stop-color="#1879E5" stop-opacity="1"/><stop offset=".07" stop-color="#197AE5" stop-opacity="1"/><stop offset=".074" stop-color="#1A7AE5" stop-opacity="1"/><stop offset=".078" stop-color="#1B7AE5" stop-opacity="1"/><stop offset=".082" stop-color="#1B7BE5" stop-opacity="1"/><stop offset=".086" stop-color="#1C7BE5" stop-opacity="1"/><stop offset=".09" stop-color="#1D7BE5" stop-opacity="1"/><stop offset=".094" stop-color="#1D7BE5" stop-opacity="1"/><stop offset=".098" stop-color="#1E7CE5" stop-opacity="1"/><stop offset=".102" stop-color="#1F7CE5" stop-opacity="1"/><stop offset=".105" stop-color="#1F7CE6" stop-opacity="1"/><stop offset=".109" stop-color="#207CE6" stop-opacity="1"/><stop offset=".113" stop-color="#217DE6" stop-opacity="1"/><stop offset=".117" stop-color="#217DE6" stop-opacity="1"/><stop offset=".121" stop-color="#227DE6" stop-opacity="1"/><stop offset=".125" stop-color="#237DE6" stop-opacity="1"/><stop offset=".129" stop-color="#237EE6" stop-opacity="1"/><stop offset=".133" stop-color="#247EE6" stop-opacity="1"/><stop offset=".137" stop-color="#257EE6" stop-opacity="1"/><stop offset=".141" stop-color="#267FE7" stop-opacity="1"/><stop offset=".145" stop-color="#267FE7" stop-opacity="1"/><stop offset=".148" stop-color="#277FE7" stop-opacity="1"/><stop offset=".152" stop-color="#287FE7" stop-opacity="1"/><stop offset=".156" stop-color="#2880E7" stop-opacity="1"/><stop offset=".16" stop-color="#2980E7" stop-opacity="1"/><stop offset=".164" stop-color="#2A80E7" stop-opacity="1"/><stop offset=".168" stop-color="#2A80E7" stop-opacity="1"/><stop offset=".172" stop-color="#2B81E7" stop-opacity="1"/><stop offset=".176" stop-color="#2C81E8" stop-opacity="1"/><stop offset=".18" stop-color="#2C81E8" stop-opacity="1"/><stop offset=".184" stop-color="#2D81E8" stop-opacity="1"/><stop offset=".188" stop-color="#2E82E8" stop-opacity="1"/><stop offset=".191" stop-color="#2E82E8" stop-opacity="1"/><stop offset=".195" stop-color="#2F82E8" stop-opacity="1"/><stop offset=".199" stop-color="#3082E8" stop-opacity="1"/><stop offset=".203" stop-color="#3083E8" stop-opacity="1"/><stop offset=".207" stop-color="#3183E8" stop-opacity="1"/><stop offset=".211" stop-color="#3283E8" stop-opacity="1"/><stop offset=".215" stop-color="#3384E9" stop-opacity="1"/><stop offset=".219" stop-color="#3384E9" stop-opacity="1"/><stop offset=".223" stop-color="#3484E9" stop-opacity="1"/><stop offset=".227" stop-color="#3584E9" stop-opacity="1"/><stop offset=".23" stop-color="#3585E9" stop-opacity="1"/><stop offset=".234" stop-color="#3685E9" stop-opacity="1"/><stop offset=".238" stop-color="#3785E9" stop-opacity="1"/><stop offset=".242" stop-color="#3785E9" stop-opacity="1"/><stop offset=".246" stop-color="#3886E9" stop-opacity="1"/><stop offset=".25" stop-color="#3986EA" stop-opacity="1"/><stop offset=".254" stop-color="#3986EA" stop-opacity="1"/><stop offset=".258" stop-color="#3A86EA" stop-opacity="1"/><stop offset=".262" stop-color="#3B87EA" stop-opacity="1"/><stop offset=".266" stop-color="#3B87EA" stop-opacity="1"/><stop offset=".27" stop-color="#3C87EA" stop-opacity="1"/><stop offset=".273" stop-color="#3D88EA" stop-opacity="1"/><stop offset=".277" stop-color="#3E88EA" stop-opacity="1"/><stop offset=".281" stop-color="#3E88EA" stop-opacity="1"/><stop offset=".285" stop-color="#3F88EB" stop-opacity="1"/><stop offset=".289" stop-color="#4089EB" stop-opacity="1"/><stop offset=".293" stop-color="#4089EB" stop-opacity="1"/><stop offset=".297" stop-color="#4189EB" stop-opacity="1"/><stop offset=".301" stop-color="#4289EB" stop-opacity="1"/><stop offset=".305" stop-color="#428AEB" stop-opacity="1"/><stop offset=".309" stop-color="#438AEB" stop-opacity="1"/><stop offset=".313" stop-color="#448AEB" stop-opacity="1"/><stop offset=".316" stop-color="#448AEB" stop-opacity="1"/><stop offset=".32" stop-color="#458BEB" stop-opacity="1"/><stop offset=".324" stop-color="#468BEC" stop-opacity="1"/><stop offset=".328" stop-color="#468BEC" stop-opacity="1"/><stop offset=".332" stop-color="#478BEC" stop-opacity="1"/><stop offset=".336" stop-color="#488CEC" stop-opacity="1"/><stop offset=".34" stop-color="#498CEC" stop-opacity="1"/><stop offset=".344" stop-color="#498CEC" stop-opacity="1"/><stop offset=".348" stop-color="#4A8DEC" stop-opacity="1"/><stop offset=".352" stop-color="#4B8DEC" stop-opacity="1"/><stop offset=".355" stop-color="#4B8DEC" stop-opacity="1"/><stop offset=".359" stop-color="#4C8DED" stop-opacity="1"/><stop offset=".363" stop-color="#4D8EED" stop-opacity="1"/><stop offset=".367" stop-color="#4D8EED" stop-opacity="1"/><stop offset=".371" stop-color="#4E8EED" stop-opacity="1"/><stop offset=".375" stop-color="#4F8EED" stop-opacity="1"/><stop offset=".379" stop-color="#4F8FED" stop-opacity="1"/><stop offset=".383" stop-color="#508FED" stop-opacity="1"/><stop offset=".387" stop-color="#518FED" stop-opacity="1"/><stop offset=".391" stop-color="#518FED" stop-opacity="1"/><stop offset=".395" stop-color="#5290EE" stop-opacity="1"/><stop offset=".398" stop-color="#5390EE" stop-opacity="1"/><stop offset=".402" stop-color="#5490EE" stop-opacity="1"/><stop offset=".406" stop-color="#5491EE" stop-opacity="1"/><stop offset=".41" stop-color="#5591EE" stop-opacity="1"/><stop offset=".414" stop-color="#5691EE" stop-opacity="1"/><stop offset=".418" stop-color="#5691EE" stop-opacity="1"/><stop offset=".422" stop-color="#5792EE" stop-opacity="1"/><stop offset=".426" stop-color="#5892EE" stop-opacity="1"/><stop offset=".43" stop-color="#5892EE" stop-opacity="1"/><stop offset=".434" stop-color="#5992EF" stop-opacity="1"/><stop offset=".438" stop-color="#5A93EF" stop-opacity="1"/><stop offset=".441" stop-color="#5A93EF" stop-opacity="1"/><stop offset=".445" stop-color="#5B93EF" stop-opacity="1"/><stop offset=".449" stop-color="#5C93EF" stop-opacity="1"/><stop offset=".453" stop-color="#5C94EF" stop-opacity="1"/><stop offset=".457" stop-color="#5D94EF" stop-opacity="1"/><stop offset=".461" stop-color="#5E94EF" stop-opacity="1"/><stop offset=".465" stop-color="#5F94EF" stop-opacity="1"/><stop offset=".469" stop-color="#5F95F0" stop-opacity="1"/><stop offset=".473" stop-color="#6095F0" stop-opacity="1"/><stop offset=".477" stop-color="#6195F0" stop-opacity="1"/><stop offset=".48" stop-color="#6196F0" stop-opacity="1"/><stop offset=".484" stop-color="#6296F0" stop-opacity="1"/><stop offset=".488" stop-color="#6396F0" stop-opacity="1"/><stop offset=".492" stop-color="#6396F0" stop-opacity="1"/><stop offset=".496" stop-color="#6497F0" stop-opacity="1"/><stop offset=".5" stop-color="#6597F0" stop-opacity="1"/><stop offset=".504" stop-color="#6597F1" stop-opacity="1"/><stop offset=".508" stop-color="#6697F1" stop-opacity="1"/><stop offset=".512" stop-color="#6798F1" stop-opacity="1"/><stop offset=".516" stop-color="#6798F1" stop-opacity="1"/><stop offset=".52" stop-color="#6898F1" stop-opacity="1"/><stop offset=".523" stop-color="#6998F1" stop-opacity="1"/><stop offset=".527" stop-color="#6999F1" stop-opacity="1"/><stop offset=".531" stop-color="#6A99F1" stop-opacity="1"/><stop offset=".535" stop-color="#6B99F1" stop-opacity="1"/><stop offset=".539" stop-color="#6C9AF1" stop-opacity="1"/><stop offset=".543" stop-color="#6C9AF2" stop-opacity="1"/><stop offset=".547" stop-color="#6D9AF2" stop-opacity="1"/><stop offset=".551" stop-color="#6E9AF2" stop-opacity="1"/><stop offset=".555" stop-color="#6E9BF2" stop-opacity="1"/><stop offset=".559" stop-color="#6F9BF2" stop-opacity="1"/><stop offset=".563" stop-color="#709BF2" stop-opacity="1"/><stop offset=".566" stop-color="#709BF2" stop-opacity="1"/><stop offset=".57" stop-color="#719CF2" stop-opacity="1"/><stop offset=".574" stop-color="#729CF2" stop-opacity="1"/><stop offset=".578" stop-color="#729CF3" stop-opacity="1"/><stop offset=".582" stop-color="#739CF3" stop-opacity="1"/><stop offset=".586" stop-color="#749DF3" stop-opacity="1"/><stop offset=".59" stop-color="#749DF3" stop-opacity="1"/><stop offset=".594" stop-color="#759DF3" stop-opacity="1"/><stop offset=".598" stop-color="#769EF3" stop-opacity="1"/><stop offset=".602" stop-color="#779EF3" stop-opacity="1"/><stop offset=".605" stop-color="#779EF3" stop-opacity="1"/><stop offset=".609" stop-color="#789EF3" stop-opacity="1"/><stop offset=".613" stop-color="#799FF4" stop-opacity="1"/><stop offset=".617" stop-color="#799FF4" stop-opacity="1"/><stop offset=".621" stop-color="#7A9FF4" stop-opacity="1"/><stop offset=".625" stop-color="#7B9FF4" stop-opacity="1"/><stop offset=".629" stop-color="#7BA0F4" stop-opacity="1"/><stop offset=".633" stop-color="#7CA0F4" stop-opacity="1"/><stop offset=".637" stop-color="#7DA0F4" stop-opacity="1"/><stop offset=".641" stop-color="#7DA0F4" stop-opacity="1"/><stop offset=".645" stop-color="#7EA1F4" stop-opacity="1"/><stop offset=".648" stop-color="#7FA1F4" stop-opacity="1"/><stop offset=".652" stop-color="#7FA1F5" stop-opacity="1"/><stop offset=".656" stop-color="#80A1F5" stop-opacity="1"/><stop offset=".66" stop-color="#81A2F5" stop-opacity="1"/><stop offset=".664" stop-color="#82A2F5" stop-opacity="1"/><stop offset=".668" stop-color="#82A2F5" stop-opacity="1"/><stop offset=".672" stop-color="#83A3F5" stop-opacity="1"/><stop offset=".676" stop-color="#84A3F5" stop-opacity="1"/><stop offset=".68" stop-color="#84A3F5" stop-opacity="1"/><stop offset=".684" stop-color="#85A3F5" stop-opacity="1"/><stop offset=".688" stop-color="#86A4F6" stop-opacity="1"/><stop offset=".691" stop-color="#86A4F6" stop-opacity="1"/><stop offset=".695" stop-color="#87A4F6" stop-opacity="1"/><stop offset=".699" stop-color="#88A4F6" stop-opacity="1"/><stop offset=".703" stop-color="#88A5F6" stop-opacity="1"/><stop offset=".707" stop-color="#89A5F6" stop-opacity="1"/><stop offset=".711" stop-color="#8AA5F6" stop-opacity="1"/><stop offset=".715" stop-color="#8AA5F6" stop-opacity="1"/><stop offset=".719" stop-color="#8BA6F6" stop-opacity="1"/><stop offset=".723" stop-color="#8CA6F7" stop-opacity="1"/><stop offset=".727" stop-color="#8DA6F7" stop-opacity="1"/><stop offset=".73" stop-color="#8DA7F7" stop-opacity="1"/><stop offset=".734" stop-color="#8EA7F7" stop-opacity="1"/><stop offset=".738" stop-color="#8FA7F7" stop-opacity="1"/><stop offset=".742" stop-color="#8FA7F7" stop-opacity="1"/><stop offset=".746" stop-color="#90A8F7" stop-opacity="1"/><stop offset=".75" stop-color="#91A8F7" stop-opacity="1"/><stop offset=".754" stop-color="#91A8F7" stop-opacity="1"/><stop offset=".758" stop-color="#92A8F7" stop-opacity="1"/><stop offset=".762" stop-color="#93A9F8" stop-opacity="1"/><stop offset=".766" stop-color="#93A9F8" stop-opacity="1"/><stop offset=".77" stop-color="#94A9F8" stop-opacity="1"/><stop offset=".773" stop-color="#95A9F8" stop-opacity="1"/><stop offset=".777" stop-color="#95AAF8" stop-opacity="1"/><stop offset=".781" stop-color="#96AAF8" stop-opacity="1"/><stop offset=".785" stop-color="#97AAF8" stop-opacity="1"/><stop offset=".789" stop-color="#98AAF8" stop-opacity="1"/><stop offset=".793" stop-color="#98ABF8" stop-opacity="1"/><stop offset=".797" stop-color="#99ABF9" stop-opacity="1"/><stop offset=".801" stop-color="#9AABF9" stop-opacity="1"/><stop offset=".805" stop-color="#9AACF9" stop-opacity="1"/><stop offset=".809" stop-color="#9BACF9" stop-opacity="1"/><stop offset=".813" stop-color="#9CACF9" stop-opacity="1"/><stop offset=".816" stop-color="#9CACF9" stop-opacity="1"/><stop offset=".82" stop-color="#9DADF9" stop-opacity="1"/><stop offset=".824" stop-color="#9EADF9" stop-opacity="1"/><stop offset=".828" stop-color="#9EADF9" stop-opacity="1"/><stop offset=".832" stop-color="#9FADFA" stop-opacity="1"/><stop offset=".836" stop-color="#A0AEFA" stop-opacity="1"/><stop offset=".84" stop-color="#A0AEFA" stop-opacity="1"/><stop offset=".844" stop-color="#A1AEFA" stop-opacity="1"/><stop offset=".848" stop-color="#A2AEFA" stop-opacity="1"/><stop offset=".852" stop-color="#A2AFFA" stop-opacity="1"/><stop offset=".855" stop-color="#A3AFFA" stop-opacity="1"/><stop offset=".859" stop-color="#A4AFFA" stop-opacity="1"/><stop offset=".863" stop-color="#A5B0FA" stop-opacity="1"/><stop offset=".867" stop-color="#A5B0FB" stop-opacity="1"/><stop offset=".871" stop-color="#A6B0FB" stop-opacity="1"/><stop offset=".875" stop-color="#A7B0FB" stop-opacity="1"/><stop offset=".879" stop-color="#A7B1FB" stop-opacity="1"/><stop offset=".883" stop-color="#A8B1FB" stop-opacity="1"/><stop offset=".887" stop-color="#A9B1FB" stop-opacity="1"/><stop offset=".891" stop-color="#A9B1FB" stop-opacity="1"/><stop offset=".895" stop-color="#AAB2FB" stop-opacity="1"/><stop offset=".898" stop-color="#ABB2FB" stop-opacity="1"/><stop offset=".902" stop-color="#ABB2FB" stop-opacity="1"/><stop offset=".906" stop-color="#ACB2FC" stop-opacity="1"/><stop offset=".91" stop-color="#ADB3FC" stop-opacity="1"/><stop offset=".914" stop-color="#ADB3FC" stop-opacity="1"/><stop offset=".918" stop-color="#AEB3FC" stop-opacity="1"/><stop offset=".922" stop-color="#AFB4FC" stop-opacity="1"/><stop offset=".926" stop-color="#B0B4FC" stop-opacity="1"/><stop offset=".93" stop-color="#B0B4FC" stop-opacity="1"/><stop offset=".934" stop-color="#B1B4FC" stop-opacity="1"/><stop offset=".938" stop-color="#B2B5FC" stop-opacity="1"/><stop offset=".941" stop-color="#B2B5FD" stop-opacity="1"/><stop offset=".945" stop-color="#B3B5FD" stop-opacity="1"/><stop offset=".949" stop-color="#B4B5FD" stop-opacity="1"/><stop offset=".953" stop-color="#B4B6FD" stop-opacity="1"/><stop offset=".957" stop-color="#B5B6FD" stop-opacity="1"/><stop offset=".961" stop-color="#B6B6FD" stop-opacity="1"/><stop offset=".965" stop-color="#B6B6FD" stop-opacity="1"/><stop offset=".969" stop-color="#B7B7FD" stop-opacity="1"/><stop offset=".973" stop-color="#B8B7FD" stop-opacity="1"/><stop offset=".977" stop-color="#B8B7FE" stop-opacity="1"/><stop offset=".98" stop-color="#B9B7FE" stop-opacity="1"/><stop offset=".984" stop-color="#BAB8FE" stop-opacity="1"/><stop offset=".988" stop-color="#BBB8FE" stop-opacity="1"/><stop offset=".992" stop-color="#BBB8FE" stop-opacity="1"/><stop offset=".996" stop-color="#BCB9FE" stop-opacity="1"/><stop offset="1" stop-color="#BDB9FE" stop-opacity="1"/></linearGradient><clipPath id="cf0b2d6f28"><path d="M 374 233 L 383 233 L 383 245.539062 L 374 245.539062 Z M 374 233" clip-rule="nonzero"/></clipPath></defs><g clip-path="url(#057413b947)"><g clip-path="url(#09ea96d07b)"><path fill="url(#6d47890624)" fill-rule="nonzero" d="M 192.949219 178.789062 L 192.949219 227.144531 L 241.347656 227.144531 L 241.347656 178.789062 Z M 192.949219 178.789062"/></g></g><path fill="#022859" fill-opacity="1" fill-rule="nonzero" d="M 277.613281 216.351562 L 277.613281 213.507812 C 276.875 214.394531 275.632812 215.234375 273.902344 216.023438 C 272.164062 216.808594 270.363281 217.203125 268.5 217.203125 C 266.035156 217.203125 263.707031 216.523438 261.515625 215.152344 C 259.320312 213.789062 257.554688 211.945312 256.21875 209.613281 C 254.878906 207.289062 254.214844 204.761719 254.214844 202.03125 C 254.214844 199.304688 254.894531 196.785156 256.261719 194.46875 C 257.625 192.15625 259.472656 190.328125 261.800781 188.976562 C 264.128906 187.628906 266.65625 186.953125 269.386719 186.953125 C 272.113281 186.953125 274.597656 187.628906 276.835938 188.976562 C 279.078125 190.328125 280.835938 192.15625 282.128906 194.46875 C 283.417969 196.78125 284.066406 199.304688 284.066406 202.03125 L 284.066406 216.355469 L 277.613281 216.355469 Z M 262.042969 206.789062 C 262.8125 208.214844 263.851562 209.339844 265.15625 210.171875 C 266.464844 211.003906 267.871094 211.417969 269.386719 211.417969 C 270.898438 211.417969 272.304688 211.003906 273.613281 210.171875 C 274.921875 209.339844 275.953125 208.214844 276.726562 206.789062 C 277.496094 205.363281 277.882812 203.777344 277.882812 202.027344 C 277.882812 200.277344 277.496094 198.734375 276.726562 197.3125 C 275.957031 195.890625 274.921875 194.769531 273.613281 193.953125 C 272.304688 193.140625 270.898438 192.734375 269.386719 192.734375 C 267.871094 192.734375 266.464844 193.140625 265.15625 193.953125 C 263.851562 194.769531 262.8125 195.890625 262.042969 197.3125 C 261.273438 198.738281 260.886719 200.308594 260.886719 202.027344 C 260.886719 203.746094 261.273438 205.363281 262.042969 206.789062 Z M 262.042969 206.789062"/><path fill="#022859" fill-opacity="1" fill-rule="nonzero" d="M 291.335938 194.46875 C 292.625 192.15625 294.390625 190.328125 296.628906 188.976562 C 298.871094 187.628906 301.351562 186.953125 304.082031 186.953125 C 306.808594 186.953125 309.335938 187.628906 311.667969 188.976562 C 313.996094 190.328125 315.84375 192.15625 317.207031 194.46875 C 318.570312 196.78125 319.253906 199.304688 319.253906 202.03125 C 319.253906 204.761719 318.585938 207.289062 317.253906 209.621094 C 315.917969 211.945312 314.15625 213.796875 311.960938 215.160156 C 309.765625 216.523438 307.441406 217.207031 304.976562 217.207031 C 303.109375 217.207031 301.304688 216.808594 299.574219 216.027344 C 297.839844 215.238281 296.601562 214.402344 295.859375 213.511719 L 295.859375 225.257812 L 289.410156 225.257812 L 289.410156 202.03125 C 289.410156 199.304688 290.058594 196.785156 291.34375 194.46875 Z M 296.738281 206.792969 C 297.507812 208.21875 298.546875 209.347656 299.851562 210.175781 C 301.160156 211.007812 302.566406 211.421875 304.082031 211.421875 C 305.59375 211.421875 307 211.007812 308.308594 210.175781 C 309.617188 209.347656 310.652344 208.21875 311.421875 206.792969 C 312.191406 205.367188 312.578125 203.78125 312.578125 202.03125 C 312.578125 200.28125 312.191406 198.738281 311.421875 197.320312 C 310.652344 195.894531 309.617188 194.777344 308.308594 193.960938 C 307 193.144531 305.59375 192.738281 304.082031 192.738281 C 302.566406 192.738281 301.160156 193.144531 299.851562 193.960938 C 298.546875 194.777344 297.507812 195.894531 296.738281 197.320312 C 295.96875 198.742188 295.582031 200.316406 295.582031 202.03125 C 295.582031 203.75 295.96875 205.367188 296.738281 206.792969 Z M 296.738281 206.792969"/><path fill="#022859" fill-opacity="1" fill-rule="nonzero" d="M 325.636719 194.46875 C 326.921875 192.15625 328.6875 190.328125 330.929688 188.976562 C 333.171875 187.628906 335.652344 186.953125 338.378906 186.953125 C 341.105469 186.953125 343.636719 187.628906 345.964844 188.976562 C 348.292969 190.328125 350.136719 192.15625 351.507812 194.46875 C 352.871094 196.78125 353.554688 199.304688 353.554688 202.03125 C 353.554688 204.761719 352.890625 207.289062 351.554688 209.621094 C 350.21875 211.945312 348.453125 213.796875 346.261719 215.160156 C 344.066406 216.523438 341.738281 217.207031 339.277344 217.207031 C 337.40625 217.207031 335.605469 216.808594 333.871094 216.027344 C 332.136719 215.238281 330.902344 214.402344 330.160156 213.511719 L 330.160156 225.257812 L 323.710938 225.257812 L 323.710938 202.03125 C 323.710938 199.304688 324.355469 196.785156 325.644531 194.46875 Z M 331.039062 206.792969 C 331.804688 208.21875 332.84375 209.347656 334.152344 210.175781 C 335.457031 211.007812 336.863281 211.421875 338.378906 211.421875 C 339.894531 211.421875 341.300781 211.007812 342.609375 210.175781 C 343.914062 209.347656 344.949219 208.21875 345.722656 206.792969 C 346.492188 205.367188 346.878906 203.78125 346.878906 202.03125 C 346.878906 200.28125 346.492188 198.738281 345.722656 197.320312 C 344.953125 195.894531 343.914062 194.777344 342.609375 193.960938 C 341.300781 193.144531 339.894531 192.738281 338.378906 192.738281 C 336.863281 192.738281 335.457031 193.144531 334.152344 193.960938 C 332.84375 194.777344 331.804688 195.894531 331.039062 197.320312 C 330.269531 198.742188 329.882812 200.316406 329.882812 202.03125 C 329.882812 203.75 330.269531 205.367188 331.039062 206.792969 Z M 331.039062 206.792969"/><path fill="#022859" fill-opacity="1" fill-rule="nonzero" d="M 360.886719 187.445312 L 369.25 209.105469 L 377.566406 187.445312 L 384.015625 187.445312 L 372.453125 216.359375 L 366.003906 216.359375 L 354.4375 187.445312 Z M 360.886719 187.445312"/><path fill="#022859" fill-opacity="1" fill-rule="nonzero" d="M 388.914062 187.445312 L 395.363281 187.445312 L 395.363281 216.359375 L 388.914062 216.359375 Z M 388.914062 187.445312"/><path fill="#022859" fill-opacity="1" fill-rule="nonzero" d="M 424.550781 216.355469 L 424.550781 213.507812 C 423.808594 214.398438 422.570312 215.238281 420.835938 216.023438 C 419.101562 216.8125 417.296875 217.203125 415.433594 217.203125 C 412.96875 217.203125 410.644531 216.523438 408.449219 215.15625 C 406.257812 213.792969 404.492188 211.949219 403.15625 209.617188 C 401.820312 207.289062 401.15625 204.761719 401.15625 202.03125 C 401.15625 199.296875 401.835938 196.78125 403.203125 194.464844 C 404.566406 192.15625 406.414062 190.324219 408.742188 188.972656 C 411.070312 187.625 413.597656 186.949219 416.332031 186.949219 C 419.0625 186.949219 421.546875 187.625 423.78125 188.972656 C 426.023438 190.324219 427.78125 192.15625 429.074219 194.464844 C 430.363281 196.777344 431.011719 199.300781 431.011719 202.03125 L 431.011719 216.355469 Z M 408.976562 206.789062 C 409.746094 208.214844 410.785156 209.34375 412.09375 210.171875 C 413.398438 211.003906 414.804688 211.417969 416.320312 211.417969 C 417.835938 211.417969 419.242188 211.003906 420.550781 210.171875 C 421.855469 209.34375 422.886719 208.214844 423.664062 206.789062 C 424.433594 205.367188 424.820312 203.78125 424.820312 202.03125 C 424.820312 200.28125 424.433594 198.738281 423.664062 197.316406 C 422.894531 195.890625 421.855469 194.773438 420.550781 193.957031 C 419.242188 193.140625 417.835938 192.734375 416.320312 192.734375 C 414.804688 192.734375 413.398438 193.140625 412.09375 193.957031 C 410.785156 194.773438 409.746094 195.890625 408.976562 197.316406 C 408.210938 198.742188 407.824219 200.3125 407.824219 202.03125 C 407.824219 203.746094 408.210938 205.367188 408.976562 206.789062 Z M 408.976562 206.789062"/><path fill="#022859" fill-opacity="1" fill-rule="nonzero" d="M 358.152344 231.941406 L 355.195312 241.898438 L 353.773438 241.898438 L 349.824219 229.765625 L 351.34375 229.765625 L 354.472656 239.828125 L 357.445312 229.765625 L 358.828125 229.765625 L 361.800781 239.828125 L 364.929688 229.765625 L 366.414062 229.765625 L 362.5 241.898438 L 361.078125 241.898438 L 358.136719 231.941406 Z M 358.152344 231.941406"/><path fill="#022859" fill-opacity="1" fill-rule="nonzero" d="M 371.976562 235.5625 C 371.683594 234.761719 370.988281 234.4375 370.097656 234.4375 C 369.003906 234.4375 368.390625 234.878906 368 235.699219 L 366.820312 235.121094 C 367.335938 233.960938 368.496094 233.140625 370.171875 233.140625 C 371.84375 233.140625 372.941406 233.824219 373.332031 235.085938 C 373.4375 235.445312 373.488281 235.839844 373.488281 236.265625 L 373.488281 241.90625 L 372.117188 241.90625 L 372.117188 240.621094 C 371.605469 241.527344 370.769531 242.089844 369.523438 242.089844 C 367.746094 242.089844 366.617188 241.015625 366.617188 239.457031 C 366.617188 237.761719 367.828125 236.773438 370.035156 236.773438 L 372.117188 236.773438 L 372.117188 236.480469 C 372.117188 236.121094 372.066406 235.8125 371.984375 235.554688 Z M 369.703125 240.8125 C 371.191406 240.8125 372.113281 239.703125 372.113281 237.921875 L 372.113281 237.890625 L 370.046875 237.890625 C 368.613281 237.890625 367.996094 238.488281 367.996094 239.359375 C 367.996094 240.226562 368.609375 240.8125 369.703125 240.8125 Z M 369.703125 240.8125"/><g clip-path="url(#cf0b2d6f28)"><path fill="#022859" fill-opacity="1" fill-rule="nonzero" d="M 378.132812 242.019531 L 374.734375 233.289062 L 376.21875 233.289062 L 378.8125 240.226562 L 381.394531 233.289062 L 382.878906 233.289062 L 378.148438 245.539062 L 376.765625 245.539062 Z M 378.132812 242.019531"/></g><path fill="#022859" fill-opacity="1" fill-rule="nonzero" d="M 385.175781 234.605469 L 384.015625 234.605469 L 384.015625 233.289062 L 385.175781 233.289062 L 385.175781 232.160156 C 385.175781 230.484375 386.21875 229.496094 387.839844 229.496094 C 388.386719 229.496094 388.8125 229.597656 389.105469 229.71875 L 388.796875 230.898438 C 388.714844 230.863281 388.453125 230.742188 388.011719 230.742188 C 387.105469 230.742188 386.558594 231.164062 386.542969 232.414062 L 386.542969 233.289062 L 388.734375 233.289062 L 388.734375 234.605469 L 386.542969 234.605469 L 386.542969 241.90625 L 385.175781 241.90625 Z M 385.175781 234.605469"/><path fill="#022859" fill-opacity="1" fill-rule="nonzero" d="M 391.324219 230.042969 C 391.875 230.042969 392.285156 230.453125 392.285156 230.980469 C 392.285156 231.542969 391.875 231.960938 391.324219 231.960938 C 390.777344 231.960938 390.367188 231.546875 390.367188 230.980469 C 390.367188 230.453125 390.792969 230.042969 391.324219 230.042969 Z M 390.640625 233.289062 L 392.011719 233.289062 L 392.011719 241.902344 L 390.640625 241.902344 Z M 390.640625 233.289062"/><path fill="#022859" fill-opacity="1" fill-rule="nonzero" d="M 398.417969 234.4375 C 396.898438 234.4375 396.027344 235.53125 396.027344 237.207031 L 396.027344 241.90625 L 394.65625 241.90625 L 394.65625 233.292969 L 395.957031 233.292969 L 396.027344 234.488281 C 396.507812 233.738281 397.355469 233.140625 398.691406 233.140625 C 400.484375 233.140625 402.054688 234.246094 402.054688 237.035156 L 402.054688 241.90625 L 400.6875 241.90625 L 400.6875 237.152344 C 400.6875 235.34375 399.761719 234.4375 398.414062 234.4375 Z M 398.417969 234.4375"/><path fill="#022859" fill-opacity="1" fill-rule="nonzero" d="M 403.957031 237.632812 C 403.957031 234.726562 405.871094 233.136719 407.820312 233.136719 C 409.152344 233.136719 410.199219 233.714844 410.84375 234.707031 L 410.84375 229.546875 L 412.214844 229.546875 L 412.214844 241.902344 L 410.914062 241.902344 L 410.863281 240.535156 C 410.214844 241.523438 409.191406 242.105469 407.820312 242.105469 C 405.855469 242.105469 403.957031 240.515625 403.957031 237.628906 Z M 408.074219 240.828125 C 409.648438 240.828125 410.84375 239.699219 410.84375 237.613281 C 410.84375 235.527344 409.601562 234.402344 408.074219 234.402344 C 406.691406 234.402344 405.34375 235.425781 405.34375 237.613281 C 405.34375 239.804688 406.691406 240.828125 408.074219 240.828125 Z M 408.074219 240.828125"/><path fill="#022859" fill-opacity="1" fill-rule="nonzero" d="M 414.210938 237.597656 C 414.210938 235.035156 415.9375 233.140625 418.226562 233.140625 C 420.515625 233.140625 422.15625 234.933594 422.15625 237.410156 C 422.15625 237.597656 422.140625 237.800781 422.125 238.007812 L 415.527344 238.007812 C 415.664062 239.800781 416.742188 240.863281 418.3125 240.863281 C 419.523438 240.863281 420.273438 240.28125 420.789062 239.34375 L 421.851562 239.941406 C 421.238281 241.15625 420.039062 242.113281 418.296875 242.113281 C 415.871094 242.113281 414.210938 240.300781 414.210938 237.601562 Z M 420.789062 236.933594 L 420.769531 236.828125 C 420.613281 235.34375 419.675781 234.382812 418.238281 234.382812 C 416.804688 234.382812 415.777344 235.394531 415.554688 236.933594 Z M 420.789062 236.933594"/><path fill="#022859" fill-opacity="1" fill-rule="nonzero" d="M 424.109375 233.292969 L 425.40625 233.292969 L 425.476562 234.757812 C 425.855469 233.90625 426.570312 233.136719 428.023438 233.136719 C 428.230469 233.136719 428.585938 233.1875 428.742188 233.238281 L 428.585938 234.589844 C 428.449219 234.554688 428.1875 234.539062 427.953125 234.539062 C 426.707031 234.539062 425.476562 235.425781 425.476562 237.203125 L 425.476562 241.902344 L 424.109375 241.902344 Z M 424.109375 233.292969"/></svg>