<svg xmlns="http://www.w3.org/2000/svg" xmlns:svg="http://www.w3.org/2000/svg" xmlns:xlink="http://www.w3.org/1999/xlink" id="svg121" width="512" height="512" version="1.1" viewBox="0 0 135.467 135.467"><defs id="defs115"><linearGradient id="linearGradient3922-1" x1="-312.305" x2="-212.305" y1="189.566" y2="189.566" gradientTransform="matrix(1.3546666,0,0,1.3546666,423.06981,-189.06535)" gradientUnits="userSpaceOnUse" xlink:href="#linearGradient3609-3"/><linearGradient id="linearGradient3609-3"><stop style="stop-color:#3535ff;stop-opacity:1" id="stop3605" offset="0"/><stop style="stop-color:navy;stop-opacity:1" id="stop3607" offset="1"/></linearGradient></defs><metadata id="metadata118"/><g id="layer1"><rect style="mix-blend-mode:overlay;fill:url(#linearGradient3922-1);fill-opacity:1;fill-rule:nonzero;stroke-width:.331134" id="rect54-3-8-1" width="135.467" height="135.467" x="0" y="0"/><path style="fill:none;stroke:#fff;stroke-width:13.4278;stroke-linecap:round;stroke-miterlimit:4;stroke-dasharray:none;stroke-opacity:1" id="path1048-5-8-0-3" d="M 102.54223,73.519892 A 34.669941,34.426628 0 0 1 64.674063,102.57506 34.669941,34.426628 0 0 1 33.653249,66.390638 34.669941,34.426628 0 0 1 68.583649,33.908692"/><path style="fill:#fff;stroke-width:.410448" id="path186-1-9-5-4-2" d="M 83.03449,70.207881 A 13.456229,13.399214 0 0 1 67.668599,80.763932 13.456229,13.399214 0 0 1 56.496022,65.871877 13.456229,13.399214 0 0 1 71.019724,54.193263 13.456229,13.399214 0 0 1 83.287098,68.204984"/><path style="fill:#fff;stroke-width:.246268" id="path186-1-1-6-3-7-2" d="m 105.93106,43.690793 a 8.0737381,8.0395279 0 0 1 -9.219534,6.333631 8.0737381,8.0395279 0 0 1 -6.703547,-8.935233 8.0737381,8.0395279 0 0 1 8.714222,-7.007168 8.0737381,8.0395279 0 0 1 7.360429,8.407032"/><path style="fill:#fff;stroke:#fff;stroke-width:.939072;stroke-linecap:butt;stroke-linejoin:miter;stroke-miterlimit:4;stroke-dasharray:none;stroke-opacity:1" id="path1097-8-1-1-9" d="m 73.989624,62.293914 c 36.554026,-32.67192 0,0 0,0 z"/></g></svg>